CddbId:e10f5863:[150, 1474, 2881, 5863, 8837, 11296, 14166, 16834, 20192, 21752, 24650, 27443, 30668, 32863, 35775, 38540, 42894, 45241, 47756, 51434, 55426, 58853, 62064, 65763, 69497, 72903, 76317, 78950, 81736, 84989, 88012, 90722, 93070, 95745, 98099, 101150, 104181, 107448, 110366, 113821, 116921, 120460, 122508, 124981, 126918, 129356, 131884, 134824, 138112, 140856, 144611, 147990, 151842, 154684, 157840, 161929, 164973, 168254, 171402, 174035, 178111, 180486, 182492, 185592, 188406, 191499, 194181, 195714, 199183, 202192, 205355, 209917, 212355, 214598, 217468, 220930, 223501, 226037, 229046, 231825, 234382, 237203, 239613, 242518, 245465, 248955, 251170, 253859, 256192, 258881, 262998, 266983, 270626, 275314, 279410, 284244, 288445, 291649, 293265]:294750:74:e10f5863 99 150 1474 2881 5863 8837 11296 14166 16834 20192 21752 24650 27443 30668 32863 35775 38540 42894 45241 47756 51434 55426 58853 62064 65763 69497 72903 76317 78950 81736 84989 88012 90722 93070 95745 98099 101150 104181 107448 110366 113821 116921 120460 122508 124981 126918 129356 131884 134824 138112 140856 144611 147990 151842 154684 157840 161929 164973 168254 171402 174035 178111 180486 182492 185592 188406 191499 194181 195714 199183 202192 205355 209917 212355 214598 217468 220930 223501 226037 229046 231825 234382 237203 239613 242518 245465 248955 251170 253859 256192 258881 262998 266983 270626 275314 279410 284244 288445 291649 293265 3930: 99 0 0 0 0 0 0 0 0 0 0 0 0 0 0 0 0 0 0 0 0 0 0 0 0 0 0 0 0 0 0 0 0 0 0 0 0 0 0 0 0 0 0 0 0 0 0 0 0 0 0 0 0 0 0 0 0 0 0 0 0 0 0 0 0 0 0 0 0 0 0 0 0 0 0 0 0 0 0 0 0 0 0 0 0 0 0 0 0 0 0 0 0 0 0 0 0 0 0 0 3930
num_tracks: 99
offsets: [150, 1474, 2881, 5863, 8837, 11296, 14166, 16834, 20192, 21752, 24650, 27443, 30668, 32863, 35775, 38540, 42894, 45241, 47756, 51434, 55426, 58853, 62064, 65763, 69497, 72903, 76317, 78950, 81736, 84989, 88012, 90722, 93070, 95745, 98099, 101150, 104181, 107448, 110366, 113821, 116921, 120460, 122508, 124981, 126918, 129356, 131884, 134824, 138112, 140856, 144611, 147990, 151842, 154684, 157840, 161929, 164973, 168254, 171402, 174035, 178111, 180486, 182492, 185592, 188406, 191499, 194181, 195714, 199183, 202192, 205355, 209917, 212355, 214598, 217468, 220930, 223501, 226037, 229046, 231825, 234382, 237203, 239613, 242518, 245465, 248955, 251170, 253859, 256192, 258881, 262998, 266983, 270626, 275314, 279410, 284244, 288445, 291649, 293265]
extents: [0, 0, 0, 0, 0, 0, 0, 0, 0, 0, 0, 0, 0, 0, 0, 0, 0, 0, 0, 0, 0, 0, 0, 0, 0, 0, 0, 0, 0, 0, 0, 0, 0, 0, 0, 0, 0, 0, 0, 0, 0, 0, 0, 0, 0, 0, 0, 0, 0, 0, 0, 0, 0, 0, 0, 0, 0, 0, 0, 0, 0, 0, 0, 0, 0, 0, 0, 0, 0, 0, 0, 0, 0, 0, 0, 0, 0, 0, 0, 0, 0, 0, 0, 0, 0, 0, 0, 0, 0, 0, 0, 0, 0, 0, 0, 0, 0, 0, 0]
total_length: 3930
cddb: [3775879267, 99, 150, 1474, 2881, 5863, 8837, 11296, 14166, 16834, 20192, 21752, 24650, 27443, 30668, 32863, 35775, 38540, 42894, 45241, 47756, 51434, 55426, 58853, 62064, 65763, 69497, 72903, 76317, 78950, 81736, 84989, 88012, 90722, 93070, 95745, 98099, 101150, 104181, 107448, 110366, 113821, 116921, 120460, 122508, 124981, 126918, 129356, 131884, 134824, 138112, 140856, 144611, 147990, 151842, 154684, 157840, 161929, 164973, 168254, 171402, 174035, 178111, 180486, 182492, 185592, 188406, 191499, 194181, 195714, 199183, 202192, 205355, 209917, 212355, 214598, 217468, 220930, 223501, 226037, 229046, 231825, 234382, 237203, 239613, 242518, 245465, 248955, 251170, 253859, 256192, 258881, 262998, 266983, 270626, 275314, 279410, 284244, 288445, 291649, 293265, 3930]
musicbrainz: ('99 150 1474 2881 5863 8837 11296 14166 16834 20192 21752 24650 27443 30668 32863 35775 38540 42894 45241 47756 51434 55426 58853 62064 65763 69497 72903 76317 78950 81736 84989 88012 90722 93070 95745 98099 101150 104181 107448 110366 113821 116921 120460 122508 124981 126918 129356 131884 134824 138112 140856 144611 147990 151842 154684 157840 161929 164973 168254 171402 174035 178111 180486 182492 185592 188406 191499 194181 195714 199183 202192 205355 209917 212355 214598 217468 220930 223501 226037 229046 231825 234382 237203 239613 242518 245465 248955 251170 253859 256192 258881 262998 266983 270626 275314 279410 284244 288445 291649 293265 294750', 'xNmYSZ86GSWXih5Vt5EW2LrR1QE-')

CD record:
Device type    : Removable CD-ROM
Version        : 0
Response Format: 1
Vendor_info    : 'SAMSUNG '
Identification : 'CD-ROM SC-148A  '
Revision       : 'B403'
Device seems to be: Generic mmc CD-ROM.
Using generic SCSI-3/mmc   CD-ROM driver (mmc_cd).
Driver flags   : MMC-2 SWABAUDIO 
Supported modes: 
first: 1 last 99
track:   1 lba:         0 (        0) 00:02:00 adr: 1 control: 0 mode: -1
track:   2 lba:      1324 (     5296) 00:19:49 adr: 1 control: 0 mode: -1
track:   3 lba:      2731 (    10924) 00:38:31 adr: 1 control: 0 mode: -1
track:   4 lba:      5713 (    22852) 01:18:13 adr: 1 control: 0 mode: -1
track:   5 lba:      8687 (    34748) 01:57:62 adr: 1 control: 0 mode: -1
track:   6 lba:     11146 (    44584) 02:30:46 adr: 1 control: 0 mode: -1
track:   7 lba:     14016 (    56064) 03:08:66 adr: 1 control: 0 mode: -1
track:   8 lba:     16684 (    66736) 03:44:34 adr: 1 control: 0 mode: -1
track:   9 lba:     20042 (    80168) 04:29:17 adr: 1 control: 0 mode: -1
track:  10 lba:     21602 (    86408) 04:50:02 adr: 1 control: 0 mode: -1
track:  11 lba:     24500 (    98000) 05:28:50 adr: 1 control: 0 mode: -1
track:  12 lba:     27293 (   109172) 06:05:68 adr: 1 control: 0 mode: -1
track:  13 lba:     30518 (   122072) 06:48:68 adr: 1 control: 0 mode: -1
track:  14 lba:     32713 (   130852) 07:18:13 adr: 1 control: 0 mode: -1
track:  15 lba:     35625 (   142500) 07:57:00 adr: 1 control: 0 mode: -1
track:  16 lba:     38390 (   153560) 08:33:65 adr: 1 control: 0 mode: -1
track:  17 lba:     42744 (   170976) 09:31:69 adr: 1 control: 0 mode: -1
track:  18 lba:     45091 (   180364) 10:03:16 adr: 1 control: 0 mode: -1
track:  19 lba:     47606 (   190424) 10:36:56 adr: 1 control: 0 mode: -1
track:  20 lba:     51284 (   205136) 11:25:59 adr: 1 control: 0 mode: -1
track:  21 lba:     55276 (   221104) 12:19:01 adr: 1 control: 0 mode: -1
track:  22 lba:     58703 (   234812) 13:04:53 adr: 1 control: 0 mode: -1
track:  23 lba:     61914 (   247656) 13:47:39 adr: 1 control: 0 mode: -1
track:  24 lba:     65613 (   262452) 14:36:63 adr: 1 control: 0 mode: -1
track:  25 lba:     69347 (   277388) 15:26:47 adr: 1 control: 0 mode: -1
track:  26 lba:     72753 (   291012) 16:12:03 adr: 1 control: 0 mode: -1
track:  27 lba:     76167 (   304668) 16:57:42 adr: 1 control: 0 mode: -1
track:  28 lba:     78800 (   315200) 17:32:50 adr: 1 control: 0 mode: -1
track:  29 lba:     81586 (   326344) 18:09:61 adr: 1 control: 0 mode: -1
track:  30 lba:     84839 (   339356) 18:53:14 adr: 1 control: 0 mode: -1
track:  31 lba:     87862 (   351448) 19:33:37 adr: 1 control: 0 mode: -1
track:  32 lba:     90572 (   362288) 20:09:47 adr: 1 control: 0 mode: -1
track:  33 lba:     92920 (   371680) 20:40:70 adr: 1 control: 0 mode: -1
track:  34 lba:     95595 (   382380) 21:16:45 adr: 1 control: 0 mode: -1
track:  35 lba:     97949 (   391796) 21:47:74 adr: 1 control: 0 mode: -1
track:  36 lba:    101000 (   404000) 22:28:50 adr: 1 control: 0 mode: -1
track:  37 lba:    104031 (   416124) 23:09:06 adr: 1 control: 0 mode: -1
track:  38 lba:    107298 (   429192) 23:52:48 adr: 1 control: 0 mode: -1
track:  39 lba:    110216 (   440864) 24:31:41 adr: 1 control: 0 mode: -1
track:  40 lba:    113671 (   454684) 25:17:46 adr: 1 control: 0 mode: -1
track:  41 lba:    116771 (   467084) 25:58:71 adr: 1 control: 0 mode: -1
track:  42 lba:    120310 (   481240) 26:46:10 adr: 1 control: 0 mode: -1
track:  43 lba:    122358 (   489432) 27:13:33 adr: 1 control: 0 mode: -1
track:  44 lba:    124831 (   499324) 27:46:31 adr: 1 control: 0 mode: -1
track:  45 lba:    126768 (   507072) 28:12:18 adr: 1 control: 0 mode: -1
track:  46 lba:    129206 (   516824) 28:44:56 adr: 1 control: 0 mode: -1
track:  47 lba:    131734 (   526936) 29:18:34 adr: 1 control: 0 mode: -1
track:  48 lba:    134674 (   538696) 29:57:49 adr: 1 control: 0 mode: -1
track:  49 lba:    137962 (   551848) 30:41:37 adr: 1 control: 0 mode: -1
track:  50 lba:    140706 (   562824) 31:18:06 adr: 1 control: 0 mode: -1
track:  51 lba:    144461 (   577844) 32:08:11 adr: 1 control: 0 mode: -1
track:  52 lba:    147840 (   591360) 32:53:15 adr: 1 control: 0 mode: -1
track:  53 lba:    151692 (   606768) 33:44:42 adr: 1 control: 0 mode: -1
track:  54 lba:    154534 (   618136) 34:22:34 adr: 1 control: 0 mode: -1
track:  55 lba:    157690 (   630760) 35:04:40 adr: 1 control: 0 mode: -1
track:  56 lba:    161779 (   647116) 35:59:04 adr: 1 control: 0 mode: -1
track:  57 lba:    164823 (   659292) 36:39:48 adr: 1 control: 0 mode: -1
track:  58 lba:    168104 (   672416) 37:23:29 adr: 1 control: 0 mode: -1
track:  59 lba:    171252 (   685008) 38:05:27 adr: 1 control: 0 mode: -1
track:  60 lba:    173885 (   695540) 38:40:35 adr: 1 control: 0 mode: -1
track:  61 lba:    177961 (   711844) 39:34:61 adr: 1 control: 0 mode: -1
track:  62 lba:    180336 (   721344) 40:06:36 adr: 1 control: 0 mode: -1
track:  63 lba:    182342 (   729368) 40:33:17 adr: 1 control: 0 mode: -1
track:  64 lba:    185442 (   741768) 41:14:42 adr: 1 control: 0 mode: -1
track:  65 lba:    188256 (   753024) 41:52:06 adr: 1 control: 0 mode: -1
track:  66 lba:    191349 (   765396) 42:33:24 adr: 1 control: 0 mode: -1
track:  67 lba:    194031 (   776124) 43:09:06 adr: 1 control: 0 mode: -1
track:  68 lba:    195564 (   782256) 43:29:39 adr: 1 control: 0 mode: -1
track:  69 lba:    199033 (   796132) 44:15:58 adr: 1 control: 0 mode: -1
track:  70 lba:    202042 (   808168) 44:55:67 adr: 1 control: 0 mode: -1
track:  71 lba:    205205 (   820820) 45:38:05 adr: 1 control: 0 mode: -1
track:  72 lba:    209767 (   839068) 46:38:67 adr: 1 control: 0 mode: -1
track:  73 lba:    212205 (   848820) 47:11:30 adr: 1 control: 0 mode: -1
track:  74 lba:    214448 (   857792) 47:41:23 adr: 1 control: 0 mode: -1
track:  75 lba:    217318 (   869272) 48:19:43 adr: 1 control: 0 mode: -1
track:  76 lba:    220780 (   883120) 49:05:55 adr: 1 control: 0 mode: -1
track:  77 lba:    223351 (   893404) 49:40:01 adr: 1 control: 0 mode: -1
track:  78 lba:    225887 (   903548) 50:13:62 adr: 1 control: 0 mode: -1
track:  79 lba:    228896 (   915584) 50:53:71 adr: 1 control: 0 mode: -1
track:  80 lba:    231675 (   926700) 51:31:00 adr: 1 control: 0 mode: -1
track:  81 lba:    234232 (   936928) 52:05:07 adr: 1 control: 0 mode: -1
track:  82 lba:    237053 (   948212) 52:42:53 adr: 1 control: 0 mode: -1
track:  83 lba:    239463 (   957852) 53:14:63 adr: 1 control: 0 mode: -1
track:  84 lba:    242368 (   969472) 53:53:43 adr: 1 control: 0 mode: -1
track:  85 lba:    245315 (   981260) 54:32:65 adr: 1 control: 0 mode: -1
track:  86 lba:    248805 (   995220) 55:19:30 adr: 1 control: 0 mode: -1
track:  87 lba:    251020 (  1004080) 55:48:70 adr: 1 control: 0 mode: -1
track:  88 lba:    253709 (  1014836) 56:24:59 adr: 1 control: 0 mode: -1
track:  89 lba:    256042 (  1024168) 56:55:67 adr: 1 control: 0 mode: -1
track:  90 lba:    258731 (  1034924) 57:31:56 adr: 1 control: 0 mode: -1
track:  91 lba:    262848 (  1051392) 58:26:48 adr: 1 control: 0 mode: -1
track:  92 lba:    266833 (  1067332) 59:19:58 adr: 1 control: 0 mode: -1
track:  93 lba:    270476 (  1081904) 60:08:26 adr: 1 control: 0 mode: -1
track:  94 lba:    275164 (  1100656) 61:10:64 adr: 1 control: 0 mode: -1
track:  95 lba:    279260 (  1117040) 62:05:35 adr: 1 control: 0 mode: -1
track:  96 lba:    284094 (  1136376) 63:09:69 adr: 1 control: 0 mode: -1
track:  97 lba:    288295 (  1153180) 64:05:70 adr: 1 control: 0 mode: -1
track:  98 lba:    291499 (  1165996) 64:48:49 adr: 1 control: 0 mode: -1
track:  99 lba:    293115 (  1172460) 65:10:15 adr: 1 control: 0 mode: -1
track:lout lba:    294600 (  1178400) 65:30:00 adr: 1 control: 0 mode: -1
